<svg width="90" height="20" viewBox="0 0 90 20" fill="none" xmlns="http://www.w3.org/2000/svg">
<g style="mix-blend-mode:luminosity" clip-path="url(#clip0_561_1766)">
<path d="M84.8471 7.97986L86.7712 13.6646H86.7938L88.6724 7.97965H90.0003L85.9499 19.3908H84.6899L86.1976 15.399L83.531 7.97965H84.8472L84.8471 7.97986ZM80.4817 7.71836C81.3817 7.71836 82.0903 8.00739 82.608 8.59922C83.1256 9.19126 83.3844 9.98954 83.3844 11.022V15.9085H82.2253V14.8074H82.1694C81.6631 15.7158 80.999 16.17 80.1662 16.17C79.4576 16.17 78.8612 15.9085 78.3776 15.3992C77.8935 14.8762 77.6573 14.2293 77.6573 13.4584C77.6573 12.6461 77.9049 11.9855 78.4226 11.5035C78.9289 11.0218 79.6039 10.7741 80.4476 10.7741C81.1676 10.7741 81.764 10.9394 82.2367 11.2558V10.9117C82.2367 10.3887 82.068 9.96202 81.7305 9.5904C81.393 9.23234 80.999 9.05341 80.549 9.05341C79.874 9.05341 79.334 9.3975 78.9399 10.0997L77.8712 9.27384C78.4562 8.24137 79.334 7.71836 80.4815 7.71836H80.4817ZM74.3381 4.31836C75.1596 4.31836 75.8573 4.64868 76.4308 5.32331C77.0158 5.99771 77.2973 6.80976 77.2973 7.75965C77.2973 8.73685 77.0046 9.56288 76.4308 10.2098C75.8682 10.8706 75.1708 11.2009 74.3381 11.2009H72.3355V15.8947H71.1201V4.31836H74.3381ZM80.639 11.9442C80.144 11.9442 79.739 12.0956 79.4012 12.3846C79.0749 12.6874 78.9062 13.0455 78.9062 13.4721C78.9062 13.8575 79.0412 14.1878 79.3112 14.4356C79.5812 14.6973 79.8962 14.8212 80.2562 14.8212C80.7626 14.8212 81.224 14.5872 81.629 14.133C82.034 13.6648 82.2253 13.128 82.2253 12.4947C81.843 12.1231 81.314 11.9442 80.639 11.9442ZM74.3715 5.76352H72.3353V9.79685H74.3715C74.8556 9.79685 75.2607 9.60417 75.5757 9.20503C75.9021 8.80589 76.0594 8.33771 76.0594 7.78718C76.0594 7.2504 75.9021 6.78223 75.5757 6.38309C75.2607 5.97019 74.8556 5.76374 74.3715 5.76374V5.76352Z" fill="#5F6368"/>
<path d="M53.9498 7.73157C54.7711 7.73157 55.4239 8.172 55.7616 8.66749H55.8175V7.97932H57.2579V15.5501C57.2579 18.661 55.7616 19.9412 53.9839 19.9412C52.3184 19.9412 51.3171 18.5647 50.9345 17.4496L52.2511 16.7752C52.4872 17.4634 53.0611 18.2757 53.9839 18.2757C55.1202 18.2757 55.8175 17.4083 55.8175 15.7978V15.1922H55.7616C55.4239 15.7015 54.7711 16.1557 53.9498 16.1557C52.2284 16.1557 50.6534 14.3249 50.6534 11.9574C50.6534 9.57609 52.2284 7.73157 53.9498 7.73157ZM63.8514 7.74534C65.6405 7.74534 66.5068 9.47975 66.7993 10.4294L66.9568 10.9111L62.355 13.2376C62.7037 14.0774 63.255 14.5178 64.02 14.5178C64.7855 14.4903 65.3255 14.0361 65.7191 13.3339L66.8891 14.2974C66.5068 14.9858 65.5953 16.1696 64.02 16.1696C62.0623 16.1696 60.6111 14.3251 60.6111 11.9574C60.6111 9.452 62.085 7.74534 63.8514 7.74534ZM30.1654 3.0791C31.7966 3.0791 32.9556 3.86362 33.822 4.88233L32.7868 6.14856C32.1568 5.43286 31.3129 4.86856 30.154 4.86856C28.005 4.86856 26.3174 6.98835 26.3174 9.61759C26.3174 12.2466 27.9938 14.3664 30.154 14.3664C31.5491 14.3664 32.3481 13.6782 32.8543 13.0589C33.2707 12.5494 33.5407 11.82 33.6532 10.815H30.1204V9.02577H35.0709C35.1272 9.34211 35.1497 9.7277 35.1497 10.1406C35.1497 11.4759 34.8459 13.1412 33.8893 14.3251C32.9443 15.5228 31.7518 16.1559 30.1654 16.1559C27.2175 16.1559 24.7422 13.2238 24.7422 9.61759C24.7422 6.01114 27.2174 3.0791 30.1654 3.0791ZM39.1105 7.73157C41.0121 7.73157 42.5646 9.50727 42.5646 11.9436C42.5646 14.3664 41.0121 16.1557 39.1105 16.1557C37.2091 16.1557 35.6564 14.3664 35.6564 11.9436C35.6564 9.50706 37.2091 7.73157 39.1105 7.73157ZM46.6261 7.73157C48.5275 7.73157 50.0802 9.50727 50.0802 11.9436C50.0802 14.3664 48.5275 16.1557 46.6261 16.1557C44.7245 16.1557 43.1716 14.3664 43.1716 11.9436C43.1716 9.50706 44.7245 7.73157 46.6261 7.73157ZM59.8573 3.51953V15.8944H58.3496V3.51953H59.8573ZM39.1218 9.39695C38.0868 9.39695 37.1864 10.4294 37.1864 11.9436C37.1864 13.444 38.0868 14.4903 39.1218 14.4903C40.157 14.4903 41.0571 13.444 41.0571 11.9436C41.0571 10.4296 40.157 9.39717 39.1218 9.39717V9.39695ZM46.6261 9.39695C45.5907 9.39695 44.6907 10.4294 44.6907 11.9436C44.6907 13.444 45.5907 14.4903 46.6261 14.4903C47.6611 14.4903 48.5611 13.444 48.5611 11.9436C48.5611 10.4296 47.6611 9.39717 46.6261 9.39717V9.39695ZM54.0961 9.3834C53.0498 9.3834 52.1836 10.4707 52.1836 11.9576C52.1836 13.4303 53.0611 14.4903 54.0961 14.4903C55.1202 14.4903 55.9302 13.4303 55.9302 11.9574C55.9302 10.4707 55.1202 9.38319 54.0961 9.38319V9.3834ZM63.8964 9.35587C63.1314 9.35587 62.0623 10.1954 62.1073 11.8197L65.1791 10.2505C65.0103 9.72749 64.5041 9.35587 63.8964 9.35587Z" fill="#5F6368"/>
<path d="M16.763 3.71995C14.9425 2.43436 12.6146 3.19823 11.5627 5.42533L8.91072 11.0458C8.14344 12.6685 9.13133 13.2356 10.2328 14.0436L12.7846 15.8458C13.6487 16.4554 14.7525 16.0933 15.2508 15.0376L17.9772 9.26167C18.893 7.32081 18.3495 4.84038 16.763 3.71974V3.71995Z" fill="#EA4335"/>
<path d="M13.7624 6.04576L11.2107 4.24382C9.80201 3.28726 9.00431 3.22382 8.42599 4.34855L4.66252 12.3225C3.61135 14.5483 4.23713 17.3948 6.05646 18.6778C7.64289 19.7982 9.67035 19.1333 10.5863 17.1924L14.4219 9.06425C14.9225 8.00705 14.6265 6.65522 13.7624 6.04554V6.04576Z" fill="#FBBC04"/>
<path d="M14.2539 1.9466L12.4616 0.679933C10.4792 -0.719637 7.94425 0.110471 6.80009 2.53606L3.38747 9.76617C2.88333 10.8328 3.18269 12.1984 4.05474 12.8139L6.06198 14.2315C7.05321 14.9324 8.32007 14.5165 8.89276 13.3038L12.7914 5.04359C13.5991 3.33241 15.387 2.74595 16.7855 3.73434L14.2539 1.9466Z" fill="#34A853"/>
<path d="M7.2844 4.60447L5.34677 3.23888C4.48263 2.63071 3.37889 2.99114 2.88055 4.04554L0.556024 8.95974C-0.588313 11.3784 0.090203 14.4726 2.07249 15.8688L3.54764 16.9079L5.33657 18.1688L6.11282 18.7152C4.7347 17.5866 4.297 15.3249 5.1397 13.5438L5.74157 12.2718L7.94587 7.61243C8.44298 6.56081 8.14714 5.21307 7.28405 4.60468L7.2844 4.60447Z" fill="#4285F4"/>
</g>
<defs>
<clipPath id="clip0_561_1766">
<rect width="90" height="20" fill="white"/>
</clipPath>
</defs>
</svg>
